<?xml version="1.0" encoding="utf-8"?>
<!-- Generator: Adobe Illustrator 15.0.0, SVG Export Plug-In . SVG Version: 6.00 Build 0)  -->
<!DOCTYPE svg PUBLIC "-//W3C//DTD SVG 1.1//EN" "http://www.w3.org/Graphics/SVG/1.1/DTD/svg11.dtd">
<svg version="1.1" id="Layer_1" xmlns="http://www.w3.org/2000/svg" xmlns:xlink="http://www.w3.org/1999/xlink" x="0px" y="0px"
	 width="54.243px" height="436.579px" viewBox="0 0 54.243 436.579" enable-background="new 0 0 54.243 436.579"
	 xml:space="preserve">
<image overflow="visible" width="71" height="581" xlink:href="icon-activities.png"  transform="matrix(0.7499 0 0 0.7499 76.2432 0)">
</image>
<g>
	<path fill="#FF9E1F" d="M27.123,436.028c-7.339,0-14.354-3.14-19.246-8.614c-4.23-4.733-6.561-10.838-6.561-17.193
		c0-14.23,11.578-25.807,25.807-25.807c6.354,0,12.459,2.331,17.193,6.563c5.474,4.894,8.612,11.909,8.612,19.244
		C52.928,424.451,41.351,436.028,27.123,436.028"/>
	<path fill="#E6002A" d="M49.013,410.221c0,2.283-0.349,4.485-0.998,6.556c-2.575,8.217-9.863,14.35-18.699,15.229
		c-0.722,0.073-1.453,0.11-2.194,0.11c-6.488,0-12.318-2.824-16.327-7.309c-0.032-0.037-0.065-0.074-0.099-0.112
		c-3.404-3.857-5.466-8.925-5.466-14.474c0-12.09,9.8-21.892,21.892-21.892c5.55,0,10.616,2.063,14.475,5.467
		c0.036,0.033,0.074,0.064,0.111,0.099C46.192,397.904,49.013,403.731,49.013,410.221"/>
	<path fill="#B00020" d="M41.461,410.221l-14.591,2.307l-6.918,10.113l9.364,9.364c8.835-0.879,16.124-7.012,18.699-15.229
		L41.461,410.221"/>
	<polygon fill="#FFFFFF" points="19.952,397.803 41.461,410.221 19.952,422.641 	"/>
	<path fill="#C29100" d="M27.123,388.329c-12.092,0-21.893,9.802-21.893,21.892l0,0C5.229,398.131,15.031,388.329,27.123,388.329
		L27.123,388.329 M27.123,388.329h0.058H27.123 M27.192,388.329c0.019,0,0.038,0,0.056,0
		C27.23,388.329,27.211,388.329,27.192,388.329 M27.259,388.329c0.019,0,0.037,0,0.055,0
		C27.296,388.329,27.278,388.329,27.259,388.329 M27.318,388.329c0.018,0,0.038,0.001,0.056,0.001
		C27.356,388.33,27.337,388.329,27.318,388.329 M27.388,388.33c0.018,0,0.036,0,0.054,0.002
		C27.424,388.33,27.405,388.33,27.388,388.33 M27.457,388.332c0.016,0,0.031,0,0.046,0
		C27.488,388.332,27.473,388.332,27.457,388.332 M27.518,388.333c0.017,0,0.032,0,0.049,0
		C27.549,388.333,27.535,388.333,27.518,388.333 M27.585,388.334c0.017,0,0.034,0,0.05,0
		C27.619,388.334,27.602,388.334,27.585,388.334 M27.653,388.335c0.013,0,0.027,0,0.04,0.002
		C27.68,388.335,27.667,388.335,27.653,388.335 M27.714,388.337c0.015,0,0.03,0.001,0.045,0.002
		C27.744,388.338,27.73,388.337,27.714,388.337 M27.781,388.339c0.015,0,0.03,0.001,0.046,0.002
		C27.813,388.34,27.796,388.339,27.781,388.339 M27.85,388.341c0.011,0.001,0.024,0.001,0.035,0.002
		C27.873,388.342,27.862,388.342,27.85,388.341 M27.908,388.343c0.015,0.001,0.029,0.001,0.044,0.001
		C27.938,388.344,27.923,388.344,27.908,388.343 M27.976,388.346c0.013,0,0.027,0.001,0.042,0.001
		C28.003,388.346,27.989,388.346,27.976,388.346 M28.047,388.348c0.008,0.002,0.018,0.002,0.028,0.002
		C28.066,388.35,28.056,388.35,28.047,388.348 M28.107,388.35c0.012,0.001,0.025,0.001,0.037,0.003
		C28.132,388.351,28.12,388.351,28.107,388.35 M28.17,388.354c0.011,0,0.022,0.001,0.033,0.001
		C28.192,388.354,28.182,388.354,28.17,388.354 M28.241,388.357c0.009,0,0.017,0,0.026,0.001
		C28.258,388.357,28.25,388.357,28.241,388.357 M28.311,388.359c0.007,0.002,0.016,0.002,0.023,0.003
		C28.328,388.361,28.318,388.361,28.311,388.359 M28.367,388.364c0.006,0,0.012,0.001,0.017,0.001
		C28.379,388.365,28.373,388.364,28.367,388.364 M28.439,388.368c0.006,0,0.01,0,0.016,0.001
		C28.449,388.368,28.445,388.368,28.439,388.368 M28.522,388.374h0.004H28.522 M28.561,388.376c0.004,0,0.01,0,0.015,0.001
		C28.571,388.376,28.565,388.376,28.561,388.376 M28.634,388.38c0.004,0,0.009,0,0.014,0C28.643,388.38,28.638,388.38,28.634,388.38
		 M28.755,388.388c0.003,0.001,0.005,0.001,0.009,0.001C28.76,388.389,28.758,388.389,28.755,388.388 M28.83,388.395
		c0.002,0,0.005,0,0.008,0.001C28.835,388.395,28.832,388.395,28.83,388.395 M28.948,388.404c0.002,0,0.004,0,0.006,0
		C28.952,388.404,28.951,388.404,28.948,388.404 M29.026,388.411h0.002H29.026 M5.229,410.223v0.057V410.223 M5.229,410.293
		c0,0.017,0.001,0.033,0.001,0.051C5.23,410.326,5.229,410.31,5.229,410.293 M5.23,410.363c0,0.013,0,0.025,0,0.039
		C5.23,410.389,5.23,410.376,5.23,410.363 M5.231,410.435c0,0.011,0,0.02,0,0.03C5.231,410.454,5.231,410.445,5.231,410.435
		 M5.231,410.493c0,0.009,0,0.018,0.001,0.026C5.231,410.511,5.231,410.502,5.231,410.493 M5.233,410.568c0,0.005,0,0.01,0,0.015
		C5.233,410.578,5.233,410.573,5.233,410.568 M5.234,410.646c0,0.002,0,0.005,0,0.007C5.234,410.651,5.234,410.648,5.234,410.646
		 M10.719,424.72c0.127,0.144,0.255,0.284,0.386,0.424c-0.104-0.111-0.207-0.223-0.309-0.338
		C10.771,424.777,10.746,424.75,10.719,424.72 M11.106,425.146c0.005,0.007,0.011,0.012,0.017,0.018
		C11.117,425.157,11.111,425.152,11.106,425.146"/>
	<path fill="#B00020" d="M27.123,388.329c-12.091,0-21.893,9.802-21.893,21.892v0.004v0.055v0.014c0,0.017,0,0.033,0,0.051
		c0,0.007,0,0.014,0,0.02c0,0.013,0,0.025,0,0.039v0.032c0.001,0.011,0.001,0.02,0.001,0.03c0,0.01,0.001,0.02,0.001,0.028
		s0,0.018,0,0.026c0,0.017,0,0.033,0,0.049c0,0.005,0,0.01,0,0.015c0,0.021,0.001,0.042,0.001,0.063v0.007
		c0.104,5.392,2.157,10.305,5.484,14.066c0.026,0.03,0.051,0.058,0.077,0.086c0.102,0.115,0.205,0.228,0.309,0.338
		c0,0.001,0,0.001,0.001,0.002c0.005,0.007,0.01,0.012,0.016,0.018c0.587,0.629,1.212,1.223,1.869,1.778
		c-3.223-3.815-5.167-8.742-5.167-14.127c0-12.092,9.802-21.893,21.894-21.893c5.381,0,10.313,1.944,14.125,5.168
		c-3.63-4.292-8.884-7.168-14.814-7.679h-0.002c-0.024-0.002-0.049-0.004-0.072-0.007c-0.002,0-0.004,0-0.005,0
		c-0.038-0.003-0.074-0.006-0.112-0.01c-0.003,0-0.005,0-0.008,0c-0.021-0.002-0.043-0.004-0.066-0.005
		c-0.003-0.001-0.005-0.001-0.008-0.001c-0.035-0.003-0.072-0.006-0.108-0.009h-0.014c-0.019-0.001-0.039-0.003-0.058-0.004
		c-0.005,0-0.011,0-0.015,0c-0.012-0.001-0.024-0.002-0.035-0.002c-0.001,0-0.002,0-0.004-0.002
		c-0.021-0.001-0.044-0.002-0.067-0.004c-0.005,0-0.01,0-0.016,0c-0.02-0.002-0.037-0.003-0.056-0.003
		c-0.006-0.001-0.011-0.001-0.017-0.002c-0.011,0-0.021-0.001-0.032-0.002c-0.008,0-0.016,0-0.024-0.002
		c-0.015,0-0.029-0.001-0.044-0.002c-0.008,0-0.017,0-0.024-0.002c-0.014,0-0.026-0.001-0.04-0.001
		c-0.011,0-0.022-0.001-0.032-0.001c-0.009-0.001-0.017-0.001-0.026-0.001c-0.013-0.002-0.025-0.002-0.039-0.003
		c-0.01,0-0.021,0-0.031,0s-0.019,0-0.028-0.002c-0.01,0-0.019,0-0.029-0.001c-0.014,0-0.028-0.001-0.042-0.001
		c-0.008-0.001-0.015-0.001-0.024-0.002c-0.015,0-0.03-0.001-0.044-0.001c-0.007,0-0.015,0-0.023,0
		c-0.011-0.001-0.024-0.001-0.035-0.002c-0.007,0-0.014,0-0.022,0c-0.016-0.001-0.031-0.002-0.046-0.002c-0.008,0-0.016,0-0.022,0
		c-0.016-0.001-0.031-0.002-0.045-0.002c-0.007,0-0.014,0-0.021,0c-0.013-0.001-0.025-0.001-0.04-0.002
		c-0.006,0-0.012,0-0.019-0.001c-0.016,0-0.032,0-0.049,0c-0.006-0.001-0.013-0.001-0.019-0.001c-0.017,0-0.032,0-0.05,0
		c-0.004-0.001-0.01-0.001-0.014-0.001c-0.016,0-0.031,0-0.046,0c-0.005,0-0.01,0-0.016-0.002c-0.018,0-0.035,0-0.053,0
		c-0.004,0-0.008,0-0.014,0c-0.018,0-0.038-0.001-0.056-0.001h-0.004c-0.018,0-0.036,0-0.055,0h-0.01c-0.02,0-0.038,0-0.057,0
		h-0.012H27.123"/>
</g>
<g>
	<path fill="#FF9E1F" d="M27.123,381.481c-7.42,0-14.511-3.174-19.458-8.709c-4.277-4.783-6.634-10.957-6.634-17.381
		c0-14.387,11.705-26.091,26.091-26.091c6.423,0,12.595,2.355,17.382,6.633c5.533,4.948,8.707,12.041,8.707,19.458
		C53.211,369.777,41.508,381.481,27.123,381.481"/>
	<path fill="#F2F2F2" d="M27.069,333.116c1.46,0,2.905,0.142,4.336,0.427c1.432,0.284,2.821,0.707,4.169,1.264
		c1.348,0.56,2.627,1.244,3.841,2.054c1.214,0.812,2.336,1.732,3.368,2.765c1.031,1.03,1.953,2.153,2.764,3.368
		c0.81,1.212,1.495,2.493,2.053,3.84c0.559,1.35,0.98,2.739,1.265,4.171c0.286,1.431,0.428,2.875,0.428,4.335
		c0,1.459-0.143,2.905-0.428,4.335c-0.285,1.432-0.706,2.821-1.265,4.169c-0.558,1.349-1.243,2.628-2.053,3.844
		c-0.811,1.212-1.733,2.333-2.764,3.365c-1.032,1.033-2.154,1.953-3.368,2.764c-1.213,0.812-2.493,1.497-3.841,2.054
		c-1.349,0.56-2.738,0.98-4.169,1.267c-1.431,0.283-2.876,0.425-4.336,0.425c-1.459,0-2.904-0.142-4.335-0.425
		c-1.431-0.286-2.821-0.707-4.168-1.267c-1.348-0.557-2.629-1.242-3.842-2.054c-1.213-0.811-2.336-1.73-3.367-2.764
		c-1.032-1.032-1.954-2.153-2.764-3.365c-0.812-1.216-1.497-2.495-2.054-3.844c-0.559-1.348-0.979-2.737-1.265-4.169
		c-0.286-1.43-0.427-2.876-0.427-4.335c0-1.46,0.141-2.904,0.427-4.335c0.285-1.432,0.706-2.821,1.265-4.171
		c0.558-1.347,1.242-2.628,2.054-3.84c0.81-1.215,1.731-2.338,2.764-3.368c1.031-1.032,2.154-1.953,3.367-2.765
		c1.213-0.81,2.494-1.494,3.842-2.054c1.348-0.557,2.737-0.979,4.168-1.264C24.166,333.258,25.61,333.116,27.069,333.116"/>
	<path fill="#C6C6C6" d="M9.348,355.339c0-11.514,8.756-20.983,19.972-22.109c-0.74-0.075-1.49-0.112-2.25-0.112
		c-12.272,0-22.223,9.948-22.223,22.222s9.951,22.223,22.223,22.223c0.76,0,1.51-0.038,2.25-0.113
		C18.104,376.321,9.348,366.853,9.348,355.339"/>
	<path fill="#36D4E0" d="M27.193,347.427c1.05,0,2.058,0.201,3.028,0.602c0.97,0.403,1.825,0.974,2.567,1.715
		c0.742,0.743,1.313,1.599,1.716,2.567c0.4,0.969,0.601,1.979,0.601,3.027c0,1.05-0.201,2.061-0.601,3.029
		c-0.403,0.969-0.974,1.824-1.716,2.566c-0.742,0.741-1.597,1.314-2.567,1.715c-0.97,0.401-1.978,0.604-3.028,0.604
		c-1.049,0-2.059-0.202-3.028-0.604c-0.969-0.4-1.824-0.974-2.567-1.715c-0.742-0.742-1.313-1.598-1.715-2.566
		c-0.401-0.969-0.602-1.979-0.602-3.029c0-1.048,0.201-2.059,0.602-3.027c0.402-0.969,0.973-1.824,1.715-2.567
		c0.743-0.741,1.598-1.312,2.567-1.715C25.134,347.628,26.144,347.427,27.193,347.427"/>
	<path fill="#C6C6C6" d="M44.978,355.339c0-11.514-8.757-20.983-19.973-22.109c0.739-0.075,1.49-0.112,2.25-0.112
		c12.274,0,22.224,9.948,22.224,22.222s-9.95,22.223-22.224,22.223c-0.759,0-1.51-0.038-2.25-0.113
		C36.221,376.321,44.978,366.853,44.978,355.339"/>
	<path d="M27.069,354.665c-0.372,0-0.672,0.303-0.672,0.674s0.301,0.672,0.672,0.672c0.372,0,0.673-0.301,0.673-0.672
		S27.441,354.665,27.069,354.665 M27.069,357.359c-1.113,0-2.021-0.906-2.021-2.021c0-1.115,0.907-2.019,2.021-2.019
		c1.115,0,2.021,0.903,2.021,2.019C29.09,356.453,28.184,357.359,27.069,357.359"/>
	<path fill="#FFFFFF" d="M27.069,354.665c-0.372,0-0.672,0.303-0.672,0.674s0.301,0.672,0.672,0.672
		c0.372,0,0.673-0.301,0.673-0.672S27.441,354.665,27.069,354.665 M27.069,357.359c-1.113,0-2.021-0.906-2.021-2.021
		c0-1.115,0.907-2.019,2.021-2.019c1.115,0,2.021,0.903,2.021,2.019C29.09,356.453,28.184,357.359,27.069,357.359"/>
	<polygon fill="#FFFFFF" points="27.941,352.448 27.069,351.576 26.199,352.448 25.247,351.495 27.069,349.672 28.893,351.495 	"/>
	<polygon fill="#FFFFFF" points="23.226,357.16 21.403,355.339 23.226,353.516 24.179,354.468 23.308,355.339 24.179,356.209 	"/>
	<polygon fill="#FFFFFF" points="27.069,361.005 25.247,359.183 26.199,358.229 27.069,359.1 27.941,358.229 28.892,359.183 	"/>
	<polygon fill="#FFFFFF" points="30.914,357.16 29.961,356.209 30.832,355.339 29.961,354.468 30.914,353.516 32.735,355.339 	"/>
	<path d="M42.307,370.576c-2.752,2.753-6.119,4.668-9.79,5.619c1.449-1.15,2.776-2.77,3.918-4.815
		c0.791-1.414,1.464-2.982,2.011-4.665c1.683-0.548,3.25-1.221,4.666-2.01c2.045-1.145,3.664-2.469,4.815-3.919
		C46.975,364.457,45.06,367.824,42.307,370.576 M11.832,370.576c-2.752-2.752-4.667-6.118-5.62-9.79
		c1.15,1.45,2.77,2.774,4.814,3.919c1.416,0.789,2.984,1.462,4.666,2.01c0.55,1.683,1.222,3.251,2.012,4.665
		c1.143,2.046,2.469,3.665,3.918,4.815C17.951,375.244,14.585,373.329,11.832,370.576 M11.832,340.102
		c2.753-2.753,6.118-4.669,9.79-5.621c-1.449,1.151-2.775,2.771-3.918,4.815c-0.791,1.416-1.463,2.982-2.012,4.666
		c-1.681,0.549-3.25,1.222-4.666,2.013c-2.044,1.142-3.664,2.468-4.814,3.917C7.165,346.221,9.08,342.853,11.832,340.102
		 M42.307,340.102c2.752,2.751,4.667,6.118,5.62,9.79c-1.151-1.449-2.77-2.775-4.815-3.917c-1.415-0.791-2.983-1.464-4.666-2.013
		c-0.547-1.684-1.221-3.25-2.011-4.666c-1.142-2.045-2.469-3.664-3.918-4.815C36.188,335.433,39.555,337.349,42.307,340.102
		 M38.917,345.547c1.263,0.46,2.449,0.993,3.539,1.602c3.976,2.221,6.164,5.128,6.164,8.19c0,3.062-2.188,5.969-6.164,8.189
		c-1.089,0.607-2.275,1.145-3.539,1.601c0.811-3.02,1.239-6.348,1.239-9.79C40.156,351.896,39.728,348.568,38.917,345.547
		 M17.279,343.492c0.458-1.264,0.994-2.449,1.602-3.538c2.22-3.977,5.128-6.166,8.188-6.166c3.062,0,5.968,2.189,8.19,6.166
		c0.609,1.089,1.144,2.274,1.602,3.538c-3.021-0.812-6.35-1.241-9.792-1.241C23.627,342.251,20.299,342.681,17.279,343.492
		 M15.223,365.129c-1.262-0.456-2.449-0.993-3.539-1.601c-3.975-2.221-6.164-5.128-6.164-8.189c0-3.063,2.189-5.97,6.164-8.19
		c1.089-0.608,2.275-1.142,3.539-1.602c-0.811,3.021-1.239,6.349-1.239,9.792C13.983,358.781,14.412,362.109,15.223,365.129
		 M36.861,367.187c-0.458,1.263-0.993,2.449-1.602,3.538c-2.222,3.975-5.128,6.162-8.19,6.162c-3.06,0-5.969-2.188-8.188-6.162
		c-0.608-1.089-1.144-2.275-1.602-3.538c3.021,0.811,6.349,1.238,9.791,1.238C30.512,368.425,33.84,367.997,36.861,367.187
		 M27.069,367.079c-3.659,0-7.177-0.5-10.303-1.438c-0.938-3.126-1.437-6.643-1.437-10.302c0-3.66,0.5-7.178,1.437-10.303
		c3.125-0.939,6.644-1.438,10.303-1.438c3.661,0,7.178,0.498,10.304,1.438c0.938,3.125,1.437,6.643,1.437,10.303
		c0,3.659-0.499,7.176-1.437,10.302C34.248,366.579,30.73,367.079,27.069,367.079 M43.26,339.149
		c-4.325-4.325-10.075-6.707-16.191-6.707c-6.115,0-11.865,2.382-16.189,6.707c-4.325,4.324-6.707,10.073-6.707,16.189
		s2.382,11.866,6.707,16.189c4.324,4.325,10.075,6.707,16.189,6.707c6.116,0,11.866-2.382,16.191-6.707
		c4.324-4.323,6.706-10.073,6.706-16.189S47.584,343.474,43.26,339.149"/>
	<rect x="6.822" y="354.665" fill="#FFFFFF" width="1.348" height="1.348"/>
	<rect x="45.88" y="354.665" fill="#FFFFFF" width="1.348" height="1.348"/>
	<rect x="26.352" y="374.194" fill="#C6C6C6" width="1.348" height="1.347"/>
	<rect x="26.352" y="335.137" fill="#C6C6C6" width="1.348" height="1.347"/>
</g>
<g>
	<circle fill="none" stroke="#777777" stroke-width="1.262" cx="27.122" cy="299.734" r="24.01"/>
	<path fill="none" stroke="#777777" stroke-width="1.262" d="M36.715,297.129l-12.784-8.414c-2.207-1.451-4.013-0.477-4.013,2.164
		v17.707c0,2.642,1.808,3.618,4.019,2.173l12.772-8.358C38.919,300.951,38.922,298.581,36.715,297.129z"/>
</g>
<g>
	<path fill="#FF9E1F" d="M27.123,272.196c-7.571,0-14.808-3.24-19.854-8.888C2.904,258.428,0.5,252.128,0.5,245.573
		c0-14.68,11.943-26.623,26.623-26.623c6.554,0,12.853,2.404,17.736,6.769c5.646,5.049,8.884,12.285,8.884,19.854
		C53.743,260.253,41.801,272.196,27.123,272.196"/>
	<path fill="#949494" d="M49.706,245.573c0,0.06,0,0.12-0.001,0.179c-0.017,2.292-0.376,4.501-1.029,6.582
		c-2.657,8.479-10.175,14.806-19.289,15.711c-0.688,0.07-1.383,0.107-2.087,0.113c-0.059,0-0.118,0-0.177,0
		c-6.694,0-12.708-2.912-16.842-7.54c-0.034-0.037-0.068-0.075-0.103-0.113c-3.511-3.982-5.639-9.207-5.639-14.931
		c0-12.473,10.11-22.584,22.584-22.584c5.726,0,10.951,2.13,14.932,5.639c0.038,0.035,0.077,0.069,0.115,0.103
		C46.795,232.868,49.706,238.879,49.706,245.573"/>
	<path fill="#C29100" d="M20.672,223.923c-9.331,2.775-16.134,11.417-16.134,21.648c0,3.846,0.961,7.466,2.655,10.635
		c-1.694-3.169-2.655-6.79-2.655-10.634C4.538,235.342,11.342,226.699,20.672,223.923 M7.195,256.211
		c0.009,0.016,0.018,0.033,0.027,0.05C7.214,256.244,7.204,256.227,7.195,256.211 M7.227,256.269l0.026,0.05L7.227,256.269
		 M7.255,256.322c0.008,0.016,0.016,0.029,0.024,0.044C7.271,256.352,7.263,256.338,7.255,256.322 M7.288,256.38
		c0.007,0.016,0.015,0.029,0.022,0.042C7.302,256.409,7.295,256.396,7.288,256.38 M7.321,256.441c0.004,0.01,0.01,0.02,0.015,0.028
		C7.331,256.461,7.325,256.451,7.321,256.441 M7.354,256.503c0.003,0.008,0.007,0.016,0.011,0.021
		C7.362,256.517,7.359,256.511,7.354,256.503 M7.418,256.616c0,0,0.001,0.002,0.001,0.004
		C7.418,256.618,7.418,256.616,7.418,256.616 M10.188,260.516c0.389,0.44,0.798,0.868,1.221,1.278
		c-0.39-0.38-0.766-0.771-1.128-1.175C10.25,260.584,10.219,260.55,10.188,260.516"/>
	<path fill="#515151" d="M27.123,222.989c-2.242,0-4.407,0.326-6.45,0.935c-9.331,2.775-16.134,11.418-16.134,21.649
		c0,3.845,0.96,7.465,2.655,10.634c0.001,0,0.002,0.002,0.002,0.002c0.009,0.018,0.018,0.035,0.027,0.052
		c0.002,0.002,0.003,0.006,0.004,0.008l0.026,0.048c0,0.002,0.002,0.006,0.003,0.006c0.007,0.016,0.015,0.029,0.023,0.044
		c0.002,0.004,0.005,0.01,0.008,0.014c0.007,0.016,0.015,0.029,0.022,0.042c0.004,0.006,0.007,0.014,0.011,0.02
		c0.004,0.01,0.01,0.02,0.015,0.028c0.006,0.012,0.014,0.023,0.02,0.033c0.004,0.008,0.007,0.014,0.011,0.021
		c0.018,0.031,0.035,0.062,0.052,0.093c0,0.002,0.001,0.004,0.001,0.004c0.786,1.397,1.714,2.703,2.769,3.896
		c0.031,0.034,0.062,0.068,0.092,0.102c0.363,0.406,0.739,0.797,1.129,1.177c0.367,0.354,0.746,0.698,1.135,1.027
		c-3.326-3.934-5.33-9.02-5.33-14.574c0-12.473,10.111-22.583,22.584-22.583c5.553,0,10.64,2.004,14.572,5.33
		C40.229,226.098,34.039,222.989,27.123,222.989"/>
	<path fill="#515151" d="M36.304,236.483l-21.238,17.884l12.234,13.79c0.704-0.006,1.399-0.043,2.087-0.113
		c9.114-0.905,16.633-7.231,19.289-15.711c0.652-2.081,1.012-4.29,1.029-6.581l-12.123-9.269"/>
	<path fill="#36D4E0" d="M14.397,238.815h-3.176c-0.561,0-1.015,0.454-1.015,1.015v11.334c0,0.559,0.454,1.016,1.015,1.016h3.176"/>
	<rect x="12.399" y="238.975" fill="#355766" width="1.887" height="13.414"/>
	<path fill="#515151" d="M39.385,253.855c1.186,0,2.145-0.961,2.145-2.146v-12.476c0-1.185-0.96-2.146-2.145-2.146H16.639
		c-1.184,0-2.144,0.96-2.144,2.146v12.476c0,1.185,0.96,2.146,2.144,2.146h7.916c0.524,0,1.013-0.263,1.303-0.698l0.746-1.12
		c0.291-0.437,0.78-0.697,1.304-0.697s1.012,0.262,1.303,0.697l0.747,1.12c0.291,0.436,0.779,0.698,1.303,0.698H39.385z"/>
	<path fill="#515151" d="M39.385,253.855c1.186,0,2.145-0.961,2.145-2.146v-12.476c0-1.185-0.96-2.146-2.145-2.146H16.639
		c-1.184,0-2.144,0.96-2.144,2.146v12.476c0,1.185,0.96,2.146,2.144,2.146h7.916c0.524,0,1.013-0.263,1.303-0.698l0.746-1.12
		c0.291-0.437,0.78-0.697,1.304-0.697s1.012,0.262,1.303,0.697l0.747,1.12c0.291,0.436,0.779,0.698,1.303,0.698H39.385z"/>
	<path fill="#252525" d="M39.385,250.711h-8.124c-0.524,0-1.013-0.262-1.303-0.698l-0.747-1.12
		c-0.291-0.436-0.779-0.697-1.303-0.697c-0.524,0-1.013,0.262-1.304,0.697l-0.746,1.12c-0.291,0.436-0.78,0.698-1.303,0.698h-7.916
		c-1.184,0-2.144-0.96-2.144-2.145v3.144c0,1.185,0.96,2.146,2.144,2.146h7.916c0.524,0,1.013-0.263,1.303-0.698l0.746-1.12
		c0.291-0.437,0.78-0.698,1.304-0.698c0.523,0,1.012,0.264,1.303,0.698l0.747,1.12c0.291,0.438,0.779,0.698,1.303,0.698h8.124
		c1.186,0,2.145-0.961,2.145-2.146v-3.144C41.531,249.751,40.571,250.711,39.385,250.711"/>
	<path fill="#252525" d="M39.385,237.088H16.639c-1.184,0-2.144,0.96-2.144,2.146v3.144c0-1.186,0.96-2.146,2.144-2.146h22.746
		c1.186,0,2.145,0.961,2.145,2.146v-3.144C41.53,238.049,40.571,237.088,39.385,237.088"/>
	<path fill="#36D4E0" d="M41.321,238.815h3.177c0.56,0,1.015,0.454,1.015,1.015v11.334c0,0.559-0.455,1.016-1.015,1.016h-3.177"/>
	<path d="M27.908,250.501c0.805,0,1.553,0.4,2,1.071l0.747,1.119c0.135,0.203,0.362,0.326,0.606,0.326h8.124
		c0.721,0,1.307-0.587,1.307-1.308v-12.476c0-0.72-0.586-1.307-1.307-1.307H16.639c-0.72,0-1.306,0.587-1.306,1.307v12.476
		c0,0.721,0.586,1.306,1.306,1.306h7.916c0.244,0,0.47-0.121,0.606-0.324l0.746-1.119C26.354,250.901,27.103,250.501,27.908,250.501
		 M39.385,254.693h-8.124c-0.806,0-1.554-0.401-2.001-1.07l-0.747-1.12c-0.135-0.203-0.362-0.324-0.605-0.324
		c-0.245,0-0.471,0.121-0.606,0.324l-0.747,1.12c-0.446,0.669-1.194,1.07-2,1.07h-7.916c-1.645,0-2.982-1.339-2.982-2.983v-12.476
		c0-1.646,1.338-2.984,2.982-2.984h22.746c1.645,0,2.983,1.338,2.983,2.984v12.476C42.37,253.354,41.03,254.693,39.385,254.693"/>
	<rect x="17.01" y="239.603" fill="#FFFFFF" width="1.677" height="1.676"/>
	<rect x="20.363" y="239.603" fill="#FFFFFF" width="5.03" height="1.676"/>
	<rect x="27.07" y="239.603" fill="#FFFFFF" width="11.737" height="1.676"/>
	<rect x="17.01" y="249.663" fill="#FFFFFF" width="1.677" height="1.676"/>
	<rect x="37.129" y="249.663" fill="#FFFFFF" width="1.677" height="1.676"/>
	<rect x="41.434" y="238.975" fill="#355766" width="1.886" height="13.414"/>
	<path d="M44.674,244.633h-0.838v1.677h0.838v4.854c0,0.097-0.079,0.175-0.176,0.175h-2.129v-11.687h2.129
		c0.097,0,0.176,0.08,0.176,0.177V244.633z M40.692,251.71c0,0.721-0.586,1.306-1.308,1.306h-8.123
		c-0.244,0-0.471-0.121-0.606-0.322l-0.747-1.121c-0.446-0.67-1.194-1.071-2-1.071s-1.554,0.401-2.001,1.071l-0.747,1.121
		c-0.135,0.201-0.362,0.322-0.605,0.322H16.64c-0.72,0-1.307-0.585-1.307-1.306v-12.477c0-0.721,0.586-1.307,1.307-1.307h22.745
		c0.722,0,1.308,0.586,1.308,1.307V251.71z M11.142,246.311h0.838v-1.677h-0.838v-4.98h2.515v11.687h-2.515V246.311z
		 M44.498,237.976H42.09c-0.475-1.018-1.509-1.726-2.706-1.726H16.64c-1.196,0-2.229,0.708-2.705,1.726h-3.057
		c-0.779,0-1.414,0.634-1.414,1.413v12.214c0,0.78,0.634,1.413,1.414,1.413h3.08c0.486,0.993,1.505,1.678,2.682,1.678h7.915
		c0.806,0,1.553-0.401,2-1.07l0.747-1.121c0.136-0.202,0.362-0.322,0.606-0.322c0.243,0,0.47,0.121,0.605,0.322l0.746,1.121
		c0.448,0.669,1.196,1.07,2.001,1.07h8.123c1.177,0,2.197-0.685,2.683-1.678h2.431c1.021,0,1.853-0.83,1.853-1.853V239.83
		C46.351,238.808,45.52,237.976,44.498,237.976"/>
</g>
<g>
	<circle fill="none" stroke="#777777" stroke-width="1.2827" cx="27.225" cy="190.854" r="24.403"/>
	<g>
		<path fill="#777777" d="M19.071,179.768c-0.459,0-0.829,0.373-0.829,0.835v2.625H35.37c1.37,0,2.489,1.126,2.489,2.507v11.069
			h1.818c0.459,0,0.83-0.374,0.83-0.835v-15.365c0-0.462-0.371-0.835-0.83-0.835H19.071z M14.765,184.898
			c-0.459,0-0.83,0.373-0.83,0.835v15.372c0,0.462,0.371,0.835,0.83,0.835H35.37c0.459,0,0.831-0.373,0.831-0.835v-15.372
			c0-0.462-0.371-0.835-0.831-0.835H14.765z M42.167,180.603v15.365c0,1.38-1.119,2.507-2.489,2.507h-1.813v2.63
			c0,1.38-1.117,2.506-2.488,2.506H14.771c-1.371,0-2.489-1.126-2.489-2.506v-15.372c0-1.381,1.119-2.507,2.489-2.507h1.811v-2.625
			c0-1.38,1.119-2.506,2.489-2.506h20.606C41.048,178.09,42.167,179.216,42.167,180.603"/>
		<path fill="none" stroke="#FFFFFF" stroke-width="0.6413" d="M19.071,179.768c-0.459,0-0.829,0.373-0.829,0.835v2.625H35.37
			c1.37,0,2.489,1.126,2.489,2.507v11.069h1.818c0.459,0,0.83-0.374,0.83-0.835v-15.365c0-0.462-0.371-0.835-0.83-0.835H19.071z
			 M14.765,184.898c-0.459,0-0.83,0.373-0.83,0.835v15.372c0,0.462,0.371,0.835,0.83,0.835H35.37c0.459,0,0.831-0.373,0.831-0.835
			v-15.372c0-0.462-0.371-0.835-0.831-0.835H14.765z M42.167,180.603v15.365c0,1.38-1.119,2.507-2.489,2.507h-1.813v2.63
			c0,1.38-1.117,2.506-2.488,2.506H14.771c-1.371,0-2.489-1.126-2.489-2.506v-15.372c0-1.381,1.119-2.507,2.489-2.507h1.811v-2.625
			c0-1.38,1.119-2.506,2.489-2.506h20.606C41.048,178.09,42.167,179.216,42.167,180.603z"/>
	</g>
</g>
<g>
	<path fill="#FF9E1F" d="M27.123,162.458c-7.518,0-14.703-3.217-19.714-8.824c-4.333-4.848-6.721-11.102-6.721-17.611
		c0-14.577,11.859-26.435,26.436-26.435c6.507,0,12.762,2.387,17.611,6.721c5.606,5.014,8.821,12.199,8.821,19.714
		C53.556,150.599,41.698,162.458,27.123,162.458"/>
	<path fill="#0B71E5" d="M49.547,136.022c0,1.418-0.132,2.806-0.386,4.151c-0.162,0.873-0.376,1.728-0.638,2.562
		c-2.637,8.419-10.104,14.702-19.152,15.601c-0.74,0.075-1.489,0.113-2.248,0.113c-0.863,0-1.716-0.05-2.553-0.145
		c-5.613-0.636-10.6-3.344-14.171-7.342c-0.033-0.038-0.067-0.076-0.102-0.114c-3.486-3.953-5.6-9.142-5.6-14.826
		c0-12.384,10.04-22.425,22.426-22.425c5.685,0,10.873,2.115,14.826,5.599c0.038,0.036,0.077,0.069,0.114,0.103
		C46.657,123.407,49.547,129.376,49.547,136.022"/>
	<path fill="#C29100" d="M21.585,114.286c-9.707,2.465-16.888,11.262-16.888,21.735c0,5.506,1.983,10.548,5.275,14.45
		c-3.292-3.903-5.275-8.944-5.275-14.449C4.698,125.549,11.878,116.751,21.585,114.286 M9.975,150.475
		c0.013,0.014,0.024,0.029,0.037,0.043C9.999,150.504,9.988,150.489,9.975,150.475 M10.021,150.528
		c0.008,0.011,0.015,0.02,0.024,0.029C10.036,150.547,10.029,150.539,10.021,150.528 M10.064,150.581
		c0.007,0.007,0.013,0.015,0.02,0.022C10.078,150.596,10.072,150.588,10.064,150.581 M10.106,150.629l0.004,0.004L10.106,150.629
		 M10.298,150.849c0.531,0.601,1.092,1.174,1.683,1.714c-0.553-0.507-1.082-1.042-1.581-1.602
		C10.366,150.924,10.333,150.886,10.298,150.849 M12,152.581l0.006,0.006C12.004,152.583,12.002,152.583,12,152.581"/>
	<path fill="#084892" d="M27.123,113.597c-1.911,0-3.766,0.239-5.538,0.689c-9.707,2.465-16.888,11.262-16.888,21.736
		c0,5.505,1.983,10.546,5.275,14.449c0.001,0.001,0.001,0.003,0.002,0.003c0.013,0.015,0.024,0.029,0.036,0.043l0.01,0.01
		c0.008,0.01,0.015,0.019,0.024,0.028c0.006,0.008,0.013,0.016,0.02,0.024c0.006,0.007,0.013,0.015,0.019,0.022
		c0.008,0.009,0.015,0.017,0.022,0.025l0.004,0.004c0.062,0.073,0.125,0.145,0.189,0.216c0.034,0.037,0.067,0.075,0.101,0.112
		c0.5,0.56,1.028,1.095,1.581,1.602c0.006,0.006,0.013,0.011,0.019,0.017c0.002,0.003,0.004,0.004,0.006,0.006
		c0.21,0.192,0.423,0.379,0.641,0.563c-3.302-3.905-5.292-8.955-5.292-14.47c0-12.385,10.039-22.424,22.425-22.424
		c5.514,0,10.565,1.99,14.469,5.292C40.137,116.685,33.99,113.597,27.123,113.597"/>
	<path fill="#084892" d="M37.793,128.804L37.793,128.804l-0.001,1.805l-21.339,19.577l0,0l8.118,8.118
		c0.837,0.095,1.69,0.144,2.553,0.144c0.759,0,1.507-0.037,2.248-0.112c9.049-0.899,16.516-7.181,19.152-15.6
		c0.261-0.834,0.476-1.69,0.638-2.563L37.793,128.804"/>
	<polygon fill="#FFFFFF" points="37.792,128.804 37.792,150.185 16.452,150.185 16.452,121.86 30.849,121.86 	"/>
	<rect x="24.853" y="131.034" fill="#0B71E5" width="10.52" height="1.466"/>
	<rect x="24.853" y="137.34" fill="#0B71E5" width="10.52" height="1.466"/>
	<rect x="24.853" y="143.646" fill="#0B71E5" width="10.52" height="1.466"/>
	<path fill="#0B71E5" d="M20.024,132.672h1.811v-1.811h-1.811V132.672z M23.387,134.225h-4.916v-4.916h4.916V134.225z"/>
	<path fill="#0B71E5" d="M20.024,138.978h1.811v-1.81h-1.811V138.978z M23.387,140.53h-4.916v-4.916h4.916V140.53z"/>
	<path fill="#0B71E5" d="M20.024,145.284h1.811v-1.811h-1.811V145.284z M23.387,146.836h-4.916v-4.915h4.916V146.836z"/>
	<polygon fill="#C2C2C2" points="33.307,124.318 34.03,130.538 37.792,130.609 37.792,128.805 37.792,128.804 	"/>
	<polygon fill="#E6E6E6" points="37.792,128.804 30.85,121.86 31.572,128.08 	"/>
</g>
<g>
	<g>
		<path fill="#777777" d="M20.563,78.81c0-0.262,0.094-0.486,0.278-0.671c0.186-0.186,0.41-0.279,0.673-0.279h10.761
			c0.262,0,0.485,0.093,0.671,0.279c0.187,0.185,0.279,0.409,0.279,0.671c0,0.261-0.093,0.486-0.279,0.671
			c-0.186,0.185-0.409,0.279-0.671,0.279H21.514c-0.263,0-0.487-0.094-0.673-0.279C20.656,79.295,20.563,79.071,20.563,78.81"/>
		<path fill="none" stroke="#FFFFFF" stroke-width="0.6367" stroke-linecap="round" d="M20.563,78.81L20.563,78.81
			c0-0.262,0.094-0.486,0.278-0.671c0.186-0.186,0.41-0.279,0.673-0.279h10.761c0.262,0,0.485,0.093,0.671,0.279
			c0.187,0.185,0.279,0.409,0.279,0.671c0,0.261-0.093,0.486-0.279,0.671c-0.186,0.185-0.409,0.279-0.671,0.279H21.514
			c-0.263,0-0.487-0.094-0.673-0.279C20.656,79.295,20.563,79.071,20.563,78.81z"/>
		<path fill="#777777" d="M20.563,87.672c0-0.263,0.094-0.487,0.278-0.671c0.186-0.186,0.41-0.279,0.673-0.279h5.208
			c0.263,0,0.486,0.093,0.672,0.279c0.186,0.185,0.278,0.409,0.278,0.671c0,0.261-0.093,0.485-0.278,0.67s-0.409,0.279-0.672,0.279
			h-5.208c-0.263,0-0.487-0.094-0.673-0.279C20.656,88.157,20.563,87.933,20.563,87.672"/>
		<path fill="none" stroke="#FFFFFF" stroke-width="0.6367" stroke-linecap="round" d="M20.563,87.672L20.563,87.672
			c0-0.263,0.094-0.487,0.278-0.671c0.186-0.186,0.41-0.279,0.673-0.279h5.208c0.263,0,0.486,0.093,0.672,0.279
			c0.186,0.185,0.278,0.409,0.278,0.671c0,0.261-0.093,0.485-0.278,0.67s-0.409,0.279-0.672,0.279h-5.208
			c-0.263,0-0.487-0.094-0.673-0.279C20.656,88.157,20.563,87.933,20.563,87.672z"/>
		<path fill="#777777" d="M20.563,83.241c0-0.263,0.094-0.487,0.278-0.671c0.186-0.186,0.41-0.279,0.673-0.279h10.761
			c0.262,0,0.485,0.093,0.671,0.279c0.187,0.185,0.279,0.409,0.279,0.671c0,0.26-0.093,0.484-0.279,0.67
			c-0.186,0.185-0.409,0.279-0.671,0.279H21.514c-0.263,0-0.487-0.094-0.673-0.279C20.656,83.726,20.563,83.501,20.563,83.241"/>
		<path fill="none" stroke="#FFFFFF" stroke-width="0.6367" stroke-linecap="round" d="M20.563,83.241L20.563,83.241
			c0-0.263,0.094-0.487,0.278-0.671c0.186-0.186,0.41-0.279,0.673-0.279h10.761c0.262,0,0.485,0.093,0.671,0.279
			c0.187,0.185,0.279,0.409,0.279,0.671c0,0.26-0.093,0.484-0.279,0.67c-0.186,0.185-0.409,0.279-0.671,0.279H21.514
			c-0.263,0-0.487-0.094-0.673-0.279C20.656,83.726,20.563,83.501,20.563,83.241z"/>
		<path fill="#777777" d="M17.85,68.336h12.001v4.531c0,0.651,0.529,1.181,1.181,1.181h5.362v19.878H17.85V68.336z M31.623,69.232
			l3.471,3.045h-3.472L31.623,69.232z M17.259,95.697h19.725c0.651,0,1.181-0.529,1.181-1.179V73.471
			c0-0.498-0.271-1.096-0.645-1.423L31.877,67.1c-0.354-0.31-0.953-0.535-1.423-0.535H17.259c-0.65,0-1.181,0.528-1.181,1.179
			v26.773C16.078,95.168,16.607,95.697,17.259,95.697"/>
		<path fill="none" stroke="#FFFFFF" stroke-width="0.6367" d="M17.85,68.336h12.001v4.531c0,0.651,0.529,1.181,1.181,1.181h5.362
			v19.878H17.85V68.336z M31.623,69.232l3.471,3.045h-3.472L31.623,69.232z M17.259,95.697h19.725c0.651,0,1.181-0.529,1.181-1.179
			V73.471c0-0.498-0.271-1.096-0.645-1.423L31.877,67.1c-0.354-0.31-0.953-0.535-1.423-0.535H17.259
			c-0.65,0-1.181,0.528-1.181,1.179v26.773C16.078,95.168,16.607,95.697,17.259,95.697z"/>
	</g>
	<circle fill="none" stroke="#777777" stroke-width="1.2735" cx="27.121" cy="81.131" r="24.228"/>
</g>
<g>
	<path fill="#FF9E1F" d="M27.123,53.042c-7.542,0-14.752-3.228-19.778-8.853c-4.348-4.864-6.742-11.137-6.742-17.668
		C0.603,11.897,12.499,0,27.123,0c6.529,0,12.804,2.395,17.669,6.743c5.624,5.029,8.849,12.238,8.849,19.777
		C53.641,41.144,41.745,53.042,27.123,53.042"/>
	<path fill="#8823C7" d="M49.619,26.521c0,0.059,0,0.119-0.001,0.178c-0.017,2.282-0.376,4.484-1.024,6.557
		c-2.646,8.446-10.137,14.749-19.216,15.651c-0.685,0.069-1.377,0.105-2.078,0.111c-0.059,0.001-0.117,0.001-0.178,0.001
		c-6.667,0-12.658-2.901-16.777-7.511c-0.034-0.038-0.068-0.076-0.103-0.113c-3.497-3.966-5.617-9.172-5.617-14.874
		c0-12.425,10.071-22.498,22.497-22.498c5.704,0,10.91,2.121,14.875,5.617c0.038,0.035,0.077,0.069,0.115,0.104
		C46.72,13.864,49.619,19.852,49.619,26.521"/>
	<path fill="#C29100" d="M20.698,4.953C11.402,7.718,4.625,16.327,4.625,26.52c0,3.831,0.956,7.437,2.645,10.595
		c-1.688-3.158-2.645-6.764-2.645-10.594C4.625,16.328,11.402,7.718,20.698,4.953 M7.271,37.117c0.01,0.018,0.018,0.034,0.027,0.052
		C7.289,37.15,7.28,37.134,7.271,37.117 M7.303,37.175l0.026,0.05L7.303,37.175 M7.331,37.229c0.008,0.014,0.016,0.029,0.024,0.043
		C7.347,37.258,7.339,37.245,7.331,37.229 M7.363,37.287c0.008,0.014,0.015,0.027,0.022,0.042
		C7.378,37.314,7.371,37.301,7.363,37.287 M7.396,37.348c0.005,0.009,0.01,0.018,0.015,0.027
		C7.406,37.366,7.401,37.357,7.396,37.348 M7.431,37.41c0.003,0.006,0.007,0.013,0.011,0.02C7.438,37.422,7.435,37.417,7.431,37.41
		 M7.493,37.521c0,0.001,0.001,0.002,0.001,0.004C7.493,37.523,7.493,37.522,7.493,37.521 M10.253,41.406
		c0.388,0.439,0.794,0.865,1.217,1.273c-0.39-0.376-0.765-0.768-1.125-1.171C10.314,41.474,10.284,41.44,10.253,41.406"/>
	<path fill="#6A1B9A" d="M27.122,4.022c-2.232,0-4.39,0.325-6.424,0.931C11.402,7.718,4.625,16.328,4.625,26.521
		c0,3.83,0.956,7.437,2.645,10.594c0,0,0.001,0.001,0.001,0.002c0.01,0.018,0.018,0.034,0.027,0.052
		c0.002,0.002,0.004,0.005,0.005,0.008l0.026,0.049c0,0.002,0.002,0.004,0.003,0.006c0.007,0.014,0.015,0.028,0.023,0.042
		c0.002,0.005,0.005,0.01,0.008,0.014c0.008,0.014,0.015,0.028,0.022,0.042c0.004,0.007,0.007,0.013,0.011,0.02
		c0.005,0.008,0.01,0.018,0.015,0.027c0.007,0.011,0.014,0.023,0.02,0.034c0.004,0.007,0.007,0.013,0.011,0.021
		c0.019,0.03,0.034,0.06,0.052,0.091c0,0.001,0.001,0.003,0.001,0.003c0.783,1.393,1.708,2.693,2.759,3.881
		c0.031,0.034,0.062,0.068,0.092,0.102c0.36,0.404,0.735,0.794,1.125,1.171c0.364,0.354,0.742,0.695,1.13,1.023
		c-3.313-3.918-5.311-8.984-5.311-14.517c0-12.425,10.073-22.497,22.499-22.497c5.532,0,10.6,1.997,14.517,5.309
		C40.18,7.12,34.013,4.022,27.122,4.022"/>
	<path fill="#6A1B9A" d="M38.281,15.362L15.963,37.68L27.3,49.018c0.701-0.005,1.394-0.042,2.078-0.111
		c9.079-0.902,16.57-7.205,19.216-15.65c0.648-2.073,1.008-4.275,1.024-6.557L38.281,15.362"/>
	<polygon fill="#157D8E" points="35.137,25.093 26.718,26.296 19.104,27.948 28.839,37.679 38.281,37.679 38.281,28.238 	"/>
	<polygon fill="#FFFFFF" points="35.137,25.093 28.55,25.093 25.694,25.093 19.106,25.093 19.106,27.948 25.694,27.948 
		28.55,27.948 35.137,27.948 	"/>
	<rect x="18.164" y="12.72" fill="#0B6FE1" width="24.587" height="19.213"/>
	<rect x="13.693" y="18.468" fill="#4DD0E1" width="24.588" height="19.212"/>
</g>
</svg>
